<?xml version="1.0" encoding="iso-8859-1"?>
<!-- Generator: Adobe Illustrator 19.0.0, SVG Export Plug-In . SVG Version: 6.00 Build 0)  -->
<svg version="1.1" id="Capa_1" xmlns="http://www.w3.org/2000/svg" xmlns:xlink="http://www.w3.org/1999/xlink" x="0px" y="0px"
	 viewBox="0 0 512 512" style="enable-background:new 0 0 512 512;" xml:space="preserve">
<polygon style="fill:#FDD93B;" points="37.259,73.505 37.259,504.396 373.354,504.396 474.741,403.01 474.741,73.505 "/>
<path style="fill:#FFFFFF;" d="M451.929,154.614h-15.208v-16.729h15.208V154.614z M451.929,122.677h-15.208v-11.152h-58.804V96.317
	h74.012V122.677z"/>
<rect x="37.259" y="7.604" style="fill:#BD8A53;" width="437.481" height="65.901"/>
<g>
	<rect x="37.259" y="73.505" style="fill:#F5A800;" width="437.481" height="20.277"/>
	<polygon style="fill:#F5A800;" points="353.077,382.733 353.077,504.396 373.354,504.396 474.741,403.01 474.741,382.733 	"/>
</g>
<polygon style="fill:#FDD93B;" points="373.354,403.01 373.354,504.396 474.741,403.01 "/>
<rect x="37.259" y="53.228" style="fill:#AA6D3B;" width="437.481" height="20.277"/>
<path d="M29.655,0v65.901v15.208V512h346.848l105.841-105.841V81.109V65.901V0H29.655z M44.863,81.109h70.463v415.683H44.863V81.109
	z M380.958,486.039v-75.425h75.425L380.958,486.039z M467.137,395.406H365.751v101.386H130.535V81.109h336.602V395.406z
	 M44.863,65.901V15.208h422.273v50.693H44.863z"/>
<rect x="64.634" y="170.329" width="32.444" height="15.208"/>
<rect x="64.634" y="226.851" width="32.444" height="15.208"/>
<rect x="64.634" y="283.374" width="32.444" height="15.208"/>
<rect x="64.634" y="339.897" width="32.444" height="15.208"/>
<rect x="64.634" y="396.42" width="32.444" height="15.208"/>
<rect x="147.263" y="170.329" width="289.457" height="15.208"/>
<rect x="147.263" y="226.851" width="289.457" height="15.208"/>
<rect x="147.263" y="283.374" width="289.457" height="15.208"/>
<rect x="147.263" y="339.897" width="289.457" height="15.208"/>
<rect x="147.263" y="396.42" width="201.251" height="15.208"/>
<rect x="246.622" y="33.457" width="15.208" height="15.208"/>
<rect x="200.998" y="33.457" width="15.208" height="15.208"/>
<rect x="292.246" y="33.457" width="15.208" height="15.208"/>
<rect x="155.374" y="33.457" width="15.208" height="15.208"/>
<rect x="64.127" y="33.457" width="15.208" height="15.208"/>
<rect x="109.75" y="33.457" width="15.208" height="15.208"/>
<rect x="337.869" y="33.457" width="15.208" height="15.208"/>
<rect x="383.493" y="33.457" width="15.208" height="15.208"/>
<rect x="429.117" y="33.457" width="15.208" height="15.208"/>
<g>
</g>
<g>
</g>
<g>
</g>
<g>
</g>
<g>
</g>
<g>
</g>
<g>
</g>
<g>
</g>
<g>
</g>
<g>
</g>
<g>
</g>
<g>
</g>
<g>
</g>
<g>
</g>
<g>
</g>
</svg>
