<?xml version="1.0" encoding="iso-8859-1"?>
<!-- Generator: Adobe Illustrator 19.0.0, SVG Export Plug-In . SVG Version: 6.00 Build 0)  -->
<svg version="1.1" id="Capa_1" xmlns="http://www.w3.org/2000/svg" xmlns:xlink="http://www.w3.org/1999/xlink" x="0px" y="0px"
	 viewBox="0 0 512 512" style="enable-background:new 0 0 512 512;" xml:space="preserve">
<path style="fill:#FDD93B;" d="M183.002,73.5H7.604v372.087c0,13.998,11.348,25.347,25.347,25.347H479.05
	c13.998,0,25.347-11.348,25.347-25.347V111.013H224.57L183.002,73.5z"/>
<path style="fill:#F5A800;" d="M479.05,470.933H32.95c-13.998,0-25.347-11.348-25.347-25.347V129.262h496.792v316.325
	C504.396,459.586,493.048,470.933,479.05,470.933z"/>
<path style="fill:#BD8A53;" d="M479.05,470.933H32.95c-13.998,0-25.347-11.348-25.347-25.347V154.609h496.792v290.978
	C504.396,459.586,493.048,470.933,479.05,470.933z"/>
<path style="fill:#FFFFFF;" d="M133.323,108.478h-15.208V93.27h15.208V108.478z M102.907,108.478H29.909V93.27h72.998V108.478z"/>
<path style="fill:#AA6D3B;" d="M479.05,439.504h-86.178V129.262H292.499v310.242H32.95c-13.998,0-25.347-11.348-25.347-25.347v31.43
	c0,13.998,11.348,25.347,25.347,25.347H479.05c13.998,0,25.347-11.348,25.347-25.347v-31.43
	C504.396,428.157,493.048,439.504,479.05,439.504z"/>
<path style="fill:#D8D7DA;" d="M342.685,436.969L342.685,436.969c-16.518,0-29.909-13.391-29.909-29.909V110.506
	c0-16.518,13.391-29.909,29.909-29.909l0,0c16.518,0,29.909,13.391,29.909,29.909V407.06
	C372.594,423.579,359.203,436.969,342.685,436.969z"/>
<path style="fill:#ACABB1;" d="M342.685,80.597L342.685,80.597c16.518,0,29.909,13.391,29.909,29.909V407.06
	c0,16.518-13.391,29.909-29.909,29.909l0,0V80.597z"/>
<path style="fill:#D8D7DA;" d="M427.422,89.366l-43.209,16.311c-9.45,3.568-20.071-0.541-24.66-9.539l0,0
	c-4.589-8.998-1.679-20.009,6.757-25.562l38.574-25.398c12.423-8.179,29.196-3.745,35.954,9.505l0,0
	C447.595,67.931,441.336,84.113,427.422,89.366z"/>
<path style="fill:#ACABB1;" d="M440.838,54.681L440.838,54.681c-1.703-3.341-4.045-6.119-6.792-8.278
	c2.071,11.496-4.196,23.393-15.75,27.754l-43.209,16.312c-6.024,2.274-12.518,1.417-17.628-1.826
	c0.194,2.547,0.868,5.092,2.094,7.494c4.589,8.998,15.21,13.107,24.66,9.539l43.209-16.312
	C441.336,84.113,447.595,67.931,440.838,54.681z"/>
<path d="M426.329,103.409v15.208h70.463v28.388H393.885v15.208h102.907v283.374c0,9.783-7.96,17.743-17.743,17.743H32.95
	c-9.783,0-17.743-7.96-17.743-17.743V162.213h277.291v-15.208H15.208V81.104h164.87l41.568,37.513h70.853v-15.208h-65.005
	l-41.568-37.513H0v81.109v4.562v294.02c0,18.168,14.781,32.951,32.95,32.951H479.05c18.169,0,32.95-14.782,32.95-32.951v-294.02
	v-4.562v-43.596C512,103.409,426.329,103.409,426.329,103.409z"/>
<rect x="30.416" y="432.919" width="15.208" height="15.208"/>
<rect x="30.416" y="272.729" width="15.208" height="16.019"/>
<rect x="30.416" y="240.691" width="15.208" height="16.019"/>
<rect x="30.416" y="208.653" width="15.208" height="16.019"/>
<rect x="30.416" y="304.767" width="15.208" height="16.019"/>
<rect x="30.416" y="368.843" width="15.208" height="16.019"/>
<rect x="30.416" y="400.881" width="15.208" height="16.019"/>
<rect x="30.416" y="336.805" width="15.208" height="16.019"/>
<rect x="30.416" y="177.426" width="15.208" height="15.208"/>
<rect x="435.21" y="177.426" width="15.583" height="15.208"/>
<rect x="404.044" y="177.426" width="15.583" height="15.208"/>
<rect x="248.203" y="177.426" width="15.583" height="15.208"/>
<rect x="217.037" y="177.426" width="15.583" height="15.208"/>
<rect x="185.871" y="177.426" width="15.583" height="15.208"/>
<rect x="154.705" y="177.426" width="15.583" height="15.208"/>
<rect x="123.539" y="177.426" width="15.583" height="15.208"/>
<rect x="92.373" y="177.426" width="15.583" height="15.208"/>
<rect x="61.207" y="177.426" width="15.583" height="15.208"/>
<rect x="466.376" y="177.426" width="15.208" height="15.208"/>
<rect x="466.376" y="400.871" width="15.208" height="16.019"/>
<rect x="466.376" y="336.795" width="15.208" height="16.019"/>
<rect x="466.376" y="304.767" width="15.208" height="16.019"/>
<rect x="466.376" y="240.691" width="15.208" height="16.019"/>
<rect x="466.376" y="208.642" width="15.208" height="16.019"/>
<rect x="466.376" y="272.729" width="15.208" height="16.019"/>
<rect x="466.376" y="368.843" width="15.208" height="16.019"/>
<rect x="466.376" y="432.919" width="15.208" height="15.208"/>
<rect x="435.21" y="432.919" width="15.583" height="15.208"/>
<rect x="404.044" y="432.919" width="15.583" height="15.208"/>
<rect x="248.203" y="432.919" width="15.583" height="15.208"/>
<rect x="279.958" y="432.919" width="15.583" height="15.208"/>
<rect x="217.037" y="432.919" width="15.583" height="15.208"/>
<rect x="185.871" y="432.919" width="15.583" height="15.208"/>
<rect x="154.705" y="432.919" width="15.583" height="15.208"/>
<rect x="123.539" y="432.919" width="15.583" height="15.208"/>
<rect x="92.373" y="432.919" width="15.583" height="15.208"/>
<rect x="61.207" y="432.919" width="15.583" height="15.208"/>
<path d="M342.685,444.573c20.685,0,37.513-16.828,37.513-37.513V121.151H364.99V407.06c0,12.299-10.006,22.305-22.305,22.305
	s-22.305-10.006-22.305-22.305V110.506c0-12.299,10.006-22.305,22.305-22.305V72.993c-20.685,0-37.513,16.828-37.513,37.513V407.06
	C305.172,427.745,322,444.573,342.685,444.573z"/>
<rect x="335.588" y="334.067" width="15.208" height="15.208"/>
<rect x="335.588" y="303.651" width="15.208" height="15.208"/>
<rect x="335.588" y="394.899" width="15.208" height="15.208"/>
<rect x="335.588" y="364.483" width="15.208" height="15.208"/>
<rect x="335.588" y="242.82" width="15.208" height="15.208"/>
<rect x="335.588" y="151.572" width="15.208" height="15.208"/>
<rect x="335.588" y="121.156" width="15.208" height="15.208"/>
<rect x="335.588" y="181.988" width="15.208" height="15.208"/>
<rect x="335.588" y="212.404" width="15.208" height="15.208"/>
<rect x="335.588" y="273.236" width="15.208" height="15.208"/>
<path d="M377.199,114.568c3.231,0,6.513-0.574,9.699-1.777l43.209-16.311c8.653-3.267,15.53-10.088,18.867-18.714
	c3.337-8.627,2.841-18.3-1.362-26.539c-4.202-8.24-11.741-14.321-20.683-16.685c-8.944-2.365-18.504-0.803-26.227,4.284
	l-38.575,25.398c-11.688,7.696-15.707,22.901-9.35,35.369C357.589,109.025,367.156,114.568,377.199,114.568z M370.491,76.926
	l38.574-25.398c2.886-1.9,6.146-2.874,9.48-2.874c1.494,0,3.003,0.196,4.499,0.591c4.836,1.278,8.75,4.436,11.022,8.893
	c2.273,4.456,2.531,9.479,0.726,14.143c-1.804,4.665-5.375,8.206-10.053,9.972l-43.209,16.311
	c-5.836,2.202-12.369-0.327-15.201-5.88C363.494,87.128,365.284,80.355,370.491,76.926z"/>
<g>
</g>
<g>
</g>
<g>
</g>
<g>
</g>
<g>
</g>
<g>
</g>
<g>
</g>
<g>
</g>
<g>
</g>
<g>
</g>
<g>
</g>
<g>
</g>
<g>
</g>
<g>
</g>
<g>
</g>
</svg>
