<?xml version="1.0" encoding="iso-8859-1"?>
<!-- Generator: Adobe Illustrator 19.0.0, SVG Export Plug-In . SVG Version: 6.00 Build 0)  -->
<svg version="1.1" id="Capa_1" xmlns="http://www.w3.org/2000/svg" xmlns:xlink="http://www.w3.org/1999/xlink" x="0px" y="0px"
	 viewBox="0 0 512 512" style="enable-background:new 0 0 512 512;" xml:space="preserve">
<rect x="7.604" y="68.436" style="fill:#FFFFFF;" width="496.792" height="435.96"/>
<polygon style="fill:#D8D7DA;" points="504.396,68.436 7.604,68.436 7.604,504.396 231.667,504.396 231.667,88.713 504.396,88.713 
	"/>
<path style="fill:#077FD5;" d="M504.396,68.436H7.604V22.812c0-8.399,6.809-15.208,15.208-15.208h466.376
	c8.399,0,15.208,6.809,15.208,15.208V68.436z"/>
<rect x="7.604" y="68.436" style="fill:#FF994D;" width="194.661" height="435.96"/>
<rect x="7.604" y="68.436" style="fill:#FF6E4A;" width="194.661" height="20.277"/>
<rect x="7.604" y="51.2" style="fill:#0053C0;" width="496.792" height="17.236"/>
<path style="fill:#FFFFFF;" d="M37.513,197.196H22.305v-16.222h15.208V197.196z M37.513,165.766H22.305V99.865h15.208V165.766z"/>
<path d="M489.188,0H22.812C10.233,0,0,10.233,0,22.812v38.02V76.04V512h209.869H512V76.04V60.832v-38.02
	C512,10.233,501.766,0,489.188,0z M15.208,496.792V76.04h179.453v420.752H15.208z M496.792,496.792H209.869V76.04h286.923V496.792z
	 M209.869,60.832H15.208v-38.02c0-4.193,3.411-7.604,7.604-7.604h466.376c4.193,0,7.604,3.411,7.604,7.604v38.02H209.869z"/>
<rect x="62.352" y="30.416" width="15.208" height="15.208"/>
<rect x="92.768" y="30.416" width="15.208" height="15.208"/>
<rect x="31.937" y="30.416" width="15.208" height="15.208"/>
<rect x="50.186" y="124.705" width="107.469" height="15.208"/>
<rect x="50.186" y="168.737" width="107.469" height="15.208"/>
<rect x="50.186" y="212.769" width="107.469" height="15.208"/>
<rect x="50.186" y="256.801" width="107.469" height="15.208"/>
<rect x="50.186" y="300.823" width="107.469" height="15.208"/>
<rect x="50.186" y="344.855" width="107.469" height="15.208"/>
<rect x="50.186" y="388.887" width="107.469" height="15.208"/>
<rect x="111.018" y="432.919" width="15.208" height="15.208"/>
<rect x="50.186" y="432.919" width="15.208" height="15.208"/>
<rect x="80.602" y="432.919" width="15.208" height="15.208"/>
<rect x="141.434" y="432.919" width="15.208" height="15.208"/>
<polygon points="368.892,276.374 331.712,322.178 343.52,331.763 388.462,276.394 343.53,220.804 331.702,230.365 "/>
<g>
</g>
<g>
</g>
<g>
</g>
<g>
</g>
<g>
</g>
<g>
</g>
<g>
</g>
<g>
</g>
<g>
</g>
<g>
</g>
<g>
</g>
<g>
</g>
<g>
</g>
<g>
</g>
<g>
</g>
</svg>
