<?xml version="1.0" encoding="iso-8859-1"?>
<!-- Generator: Adobe Illustrator 19.0.0, SVG Export Plug-In . SVG Version: 6.00 Build 0)  -->
<svg version="1.1" id="Capa_1" xmlns="http://www.w3.org/2000/svg" xmlns:xlink="http://www.w3.org/1999/xlink" x="0px" y="0px"
	 viewBox="0 0 512 512" style="enable-background:new 0 0 512 512;" xml:space="preserve">
<g>
	<circle style="fill:#077FD5;" cx="319.873" cy="38.02" r="30.416"/>
	<circle style="fill:#077FD5;" cx="85.671" cy="411.121" r="60.832"/>
	<circle style="fill:#077FD5;" cx="347.248" cy="463.842" r="40.554"/>
	<circle style="fill:#077FD5;" cx="468.911" cy="330.012" r="30.416"/>
</g>
<g>
	<circle style="fill:#00E2F0;" cx="150.558" cy="52.214" r="40.554"/>
	<circle style="fill:#00E2F0;" cx="43.089" cy="167.794" r="30.416"/>
	<circle style="fill:#00E2F0;" cx="466.883" cy="177.933" r="30.416"/>
</g>
<path style="fill:#0053C0;" d="M85.671,451.675c-30.14,0-55.146-21.925-59.975-50.693c-0.554,3.299-0.857,6.682-0.857,10.139
	c0,33.596,27.235,60.832,60.832,60.832s60.832-27.235,60.832-60.832c0-3.456-0.303-6.84-0.857-10.139
	C140.817,429.751,115.811,451.675,85.671,451.675z"/>
<path d="M319.873,76.04c20.965,0,38.02-17.055,38.02-38.02S340.838,0,319.873,0c-20.965,0-38.02,17.055-38.02,38.02
	S298.909,76.04,319.873,76.04z M319.873,15.208c12.579,0,22.812,10.234,22.812,22.812s-10.233,22.812-22.812,22.812
	c-12.579,0-22.812-10.234-22.812-22.812S307.294,15.208,319.873,15.208z"/>
<path d="M85.671,342.685c-37.736,0-68.436,30.7-68.436,68.436s30.7,68.436,68.436,68.436s68.436-30.7,68.436-68.436
	S123.407,342.685,85.671,342.685z M85.671,464.349c-29.35,0-53.228-23.878-53.228-53.228c0-29.349,23.877-53.228,53.228-53.228
	s53.228,23.878,53.228,53.228C138.899,440.47,115.022,464.349,85.671,464.349z"/>
<path d="M347.248,415.683c-26.554,0-48.158,21.604-48.158,48.158c0,26.554,21.604,48.158,48.158,48.158s48.158-21.604,48.158-48.158
	C395.406,437.288,373.802,415.683,347.248,415.683z M347.248,496.792c-18.168,0-32.951-14.781-32.951-32.95
	c0-18.169,14.782-32.951,32.951-32.951c18.168,0,32.951,14.781,32.951,32.951C380.198,482.011,365.416,496.792,347.248,496.792z"/>
<path d="M468.911,291.992c-20.965,0-38.02,17.055-38.02,38.02c0,20.965,17.055,38.02,38.02,38.02c20.965,0,38.02-17.055,38.02-38.02
	C506.931,309.047,489.876,291.992,468.911,291.992z M468.911,352.824c-12.579,0-22.812-10.234-22.812-22.812
	s10.233-22.812,22.812-22.812c12.579,0,22.812,10.234,22.812,22.812S481.49,352.824,468.911,352.824z"/>
<path d="M150.558,100.372c26.554,0,48.158-21.604,48.158-48.158S177.112,4.055,150.558,4.055S102.4,25.66,102.4,52.214
	S124.004,100.372,150.558,100.372z M150.558,19.263c18.168,0,32.95,14.781,32.95,32.95s-14.782,32.95-32.95,32.95
	s-32.951-14.781-32.951-32.95S132.39,19.263,150.558,19.263z"/>
<path d="M81.109,167.794c0-20.965-17.055-38.02-38.02-38.02s-38.02,17.055-38.02,38.02s17.055,38.02,38.02,38.02
	S81.109,188.759,81.109,167.794z M20.277,167.794c0-12.578,10.233-22.812,22.812-22.812s22.812,10.234,22.812,22.812
	s-10.233,22.812-22.812,22.812S20.277,180.372,20.277,167.794z"/>
<path d="M397.622,422.428l9.982,11.473c16.635-14.473,31.16-31.188,43.169-49.678l-12.753-8.283
	C426.781,393.243,413.19,408.884,397.622,422.428z"/>
<path d="M252.958,476.515c-33.092,0-64.92-7.158-94.599-21.274l-6.532,13.733c31.736,15.095,65.762,22.749,101.132,22.749
	c10.621,0,21.381-0.73,31.981-2.169l-2.046-15.069C272.97,475.832,262.898,476.515,252.958,476.515z"/>
<path d="M19.944,220.165C18.147,231.943,17.236,244,17.236,256c0,29.203,5.291,57.73,15.727,84.79l14.189-5.473
	C37.392,310.01,32.444,283.325,32.444,256c0-11.235,0.853-22.52,2.535-33.542L19.944,220.165z"/>
<path d="M101.786,95.474L91.358,84.405c-9.858,9.286-18.956,19.458-27.044,30.233l12.163,9.129
	C84.045,113.685,92.559,104.166,101.786,95.474z"/>
<path d="M252.958,35.485c3.819,0,7.736,0.103,11.642,0.306l0.788-15.188c-4.167-0.217-8.349-0.326-12.43-0.326
	c-13.812,0-27.68,1.211-41.22,3.599l2.641,14.976C227.05,36.618,240.03,35.485,252.958,35.485z"/>
<path d="M435.587,132.381l12.586-8.537c-19.035-28.065-44.424-52.166-73.422-69.699l-7.869,13.014
	C394.017,83.565,417.775,106.119,435.587,132.381z"/>
<path d="M487.824,276.048c0.569-6.745,0.857-13.49,0.857-20.048c0-8.179-0.43-16.465-1.277-24.626l-15.127,1.57
	c0.794,7.641,1.196,15.399,1.196,23.055c0,6.134-0.271,12.448-0.803,18.772L487.824,276.048z"/>
<path d="M428.863,177.933c0,20.965,17.055,38.02,38.02,38.02s38.02-17.055,38.02-38.02s-17.055-38.02-38.02-38.02
	S428.863,156.968,428.863,177.933z M466.883,155.121c12.579,0,22.812,10.234,22.812,22.812s-10.233,22.812-22.812,22.812
	c-12.579,0-22.812-10.234-22.812-22.812S454.304,155.121,466.883,155.121z"/>
<rect x="169.624" y="428.451" transform="matrix(0.9809 0.1946 -0.1946 0.9809 89.196 -35.8542)" width="114.923" height="15.208"/>
<path d="M361.941,255.464l56.654,48.006l9.831-11.602l-52.972-44.888l49.504-31.078l-8.087-12.879l-53.59,33.643l-22.339-18.93
	l-8.098-124.702l-15.176,0.986l7.147,110.05l-62.135-52.652l37.878-59.878l-12.853-8.131l-36.741,58.081l-52.907-44.832
	l-9.831,11.602l54.531,46.207l-49.21,77.792l-61.911-22.6l15.413-91.201l-14.995-2.535l-14.944,88.432l-27.103-9.893l-5.216,14.285
	l29.742,10.856L96.606,325.662l14.995,2.535l17.456-103.288l56.169,20.504l-57.294,90.571l12.853,8.131l59.061-93.365l89.16,32.547
	l-130.708,82.057l8.087,12.879l140.701-88.33l23.873,8.753l6.482,99.82l15.176-0.986l-6.047-93.11l64.703,23.72l5.235-14.279
	l-71.014-26.033l-1.373-21.133L361.941,255.464z M349.769,245.15l-6.771,4.25l-0.686-10.568L349.769,245.15z M208.165,237.597
	l46.306-73.201l71.714,60.769l2.171,33.428l-23.044,14.467L208.165,237.597z M329.88,282.062l-6.507-2.386l6.103-3.831
	L329.88,282.062z"/>
<g>
</g>
<g>
</g>
<g>
</g>
<g>
</g>
<g>
</g>
<g>
</g>
<g>
</g>
<g>
</g>
<g>
</g>
<g>
</g>
<g>
</g>
<g>
</g>
<g>
</g>
<g>
</g>
<g>
</g>
</svg>
