<?xml version="1.0" encoding="iso-8859-1"?>
<!-- Generator: Adobe Illustrator 19.0.0, SVG Export Plug-In . SVG Version: 6.00 Build 0)  -->
<svg version="1.1" id="Capa_1" xmlns="http://www.w3.org/2000/svg" xmlns:xlink="http://www.w3.org/1999/xlink" x="0px" y="0px"
	 viewBox="0 0 512 512" style="enable-background:new 0 0 512 512;" xml:space="preserve">
<path style="fill:#FFB124;" d="M274.432,437.049v-91.325h-36.864v91.325h-134.62c-6.325,0-11.452,5.127-11.452,11.452v13.96
	c0,6.325,5.127,11.452,11.452,11.452h305.111c6.325,0,11.452-5.127,11.452-11.452v-13.96c0-6.325-5.127-11.452-11.452-11.452
	L274.432,437.049L274.432,437.049z"/>
<path style="fill:#21D8DE;" d="M383.243,107.801c-13.748,0-26.96,2.287-39.282,6.496c-13.077-52.978-60.911-92.265-117.928-92.265
	c-55.222,0-101.83,36.853-116.591,87.304C51.536,118.589,7.287,168.759,7.287,229.272c0,67.086,54.384,121.471,121.471,121.471
	c55.222,0,197.468,0,254.485,0c67.086,0,121.471-54.384,121.471-121.471S450.329,107.801,383.243,107.801z"/>
<path style="fill:#11B9C1;" d="M472.55,146.944c5.347,13.691,8.286,28.589,8.286,44.174c0,67.086-54.384,121.471-121.471,121.471
	c-57.017,0-199.263,0-254.485,0c-35.319,0-67.112-15.079-89.307-39.143c17.671,45.244,61.683,77.296,113.184,77.296
	c55.222,0,197.468,0,254.485,0c67.086,0,121.471-54.384,121.471-121.471C504.713,197.504,492.513,168.59,472.55,146.944z"/>
<path style="fill:#2D5872;" d="M196.822,489.964h118.357c3.052,0,5.525-2.474,5.525-5.525v-57.915c0-3.051-2.474-5.525-5.525-5.525
	h-24.194v-26.052c0-3.051-2.474-5.525-5.525-5.525h-57.915c-3.051,0-5.525,2.474-5.525,5.525v26.051h-25.197
	c-3.051,0-5.525,2.474-5.525,5.525v57.915C191.296,487.49,193.77,489.964,196.822,489.964z"/>
<path d="M383.243,358.029C454.24,358.029,512,300.268,512,229.272c0-70.997-57.76-128.758-128.757-128.758
	c-11.656,0-23.151,1.551-34.274,4.617c-16.639-53.593-66.136-90.385-122.936-90.385c-28.402,0-55.334,9.067-77.881,26.22
	c-20.599,15.671-36.219,37.547-44.343,61.974c-28.152,5.54-53.823,20.476-72.681,42.389C11.054,168.65,0,198.462,0,229.272
	c0,70.997,57.76,128.757,128.757,128.757h14.059c4.025,0,7.287-3.262,7.287-7.287c0-4.024-3.262-7.286-7.287-7.286h-14.059
	c-62.961,0-114.184-51.223-114.184-114.184c0-56.435,40.381-103.85,96.019-112.741c2.779-0.444,5.053-2.449,5.843-5.149
	c14.136-48.317,59.204-82.063,109.598-82.063c52.664,0,98.249,35.662,110.853,86.724c0.49,1.983,1.788,3.67,3.582,4.649
	s3.916,1.16,5.847,0.5c11.861-4.051,24.286-6.105,36.928-6.105c62.961,0,114.184,51.223,114.184,114.185
	c0,62.961-51.223,114.184-114.184,114.184h-108.81h-36.865h-57.833c-4.025,0-7.287,3.262-7.287,7.286
	c0,4.024,3.262,7.287,7.287,7.287h50.546v24.106h-2.736c-7.065,0-12.812,5.747-12.812,12.812v18.766h-17.911
	c-7.065,0-12.812,5.747-12.812,12.812v3.239h-81.062c-10.333,0-18.739,8.406-18.739,18.739v13.96
	c0,10.333,8.406,18.739,18.739,18.739h81.062v3.239c0,7.065,5.748,12.812,12.812,12.812h118.357c7.065,0,12.812-5.747,12.812-12.812
	v-3.239h80.068c10.332,0,18.738-8.406,18.738-18.739v-13.96c0-10.333-8.406-18.739-18.738-18.739h-80.068v-3.239
	c0-7.065-5.748-12.812-12.812-12.812H298.27v-18.766c0-7.065-5.747-12.812-12.811-12.812h-3.74v-24.106H383.243z M184.009,466.627
	h-81.062c-2.297,0-4.166-1.869-4.166-4.166v-13.96c0-2.297,1.869-4.166,4.166-4.166h81.062V466.627z M327.991,444.335h80.068
	c2.297,0,4.165,1.869,4.165,4.166v13.96c0,2.297-1.868,4.166-4.165,4.166h-80.068V444.335z M244.854,358.029h22.292v24.106h-22.292
	V358.029z M283.697,396.708v24.29c0,4.024,3.262,7.286,7.286,7.286h22.434v8.764v36.864v8.764H198.583v-8.764v-36.864v-8.764h23.436
	c4.025,0,7.287-3.262,7.287-7.286v-24.29h8.262h36.865H283.697z"/>
<path d="M384.281,172.504c4.025,0,7.287-3.262,7.287-7.287c0-4.024-3.262-7.287-7.287-7.287h-36.106
	c-4.025,0-7.287,3.262-7.287,7.287c0,4.024,3.262,7.287,7.287,7.287H384.281z"/>
<path d="M125.506,172.504h185.491c4.025,0,7.287-3.262,7.287-7.287c0-4.024-3.262-7.287-7.287-7.287H125.506
	c-4.025,0-7.287,3.262-7.287,7.287C118.219,169.242,121.481,172.504,125.506,172.504z"/>
<path d="M125.506,222.997h258.775c4.025,0,7.287-3.262,7.287-7.287c0-4.024-3.262-7.287-7.287-7.287H125.506
	c-4.025,0-7.287,3.262-7.287,7.287C118.219,219.734,121.481,222.997,125.506,222.997z"/>
<path d="M125.506,273.489h258.775c4.025,0,7.287-3.262,7.287-7.287s-3.262-7.287-7.287-7.287H125.506
	c-4.025,0-7.287,3.262-7.287,7.287S121.481,273.489,125.506,273.489z"/>
<g>
</g>
<g>
</g>
<g>
</g>
<g>
</g>
<g>
</g>
<g>
</g>
<g>
</g>
<g>
</g>
<g>
</g>
<g>
</g>
<g>
</g>
<g>
</g>
<g>
</g>
<g>
</g>
<g>
</g>
</svg>
