<?xml version="1.0" encoding="iso-8859-1"?>
<!-- Generator: Adobe Illustrator 19.0.0, SVG Export Plug-In . SVG Version: 6.00 Build 0)  -->
<svg version="1.1" id="Capa_1" xmlns="http://www.w3.org/2000/svg" xmlns:xlink="http://www.w3.org/1999/xlink" x="0px" y="0px"
	 viewBox="0 0 512 512" style="enable-background:new 0 0 512 512;" xml:space="preserve">
<path style="fill:#077FD5;" d="M504.396,68.436H7.604V22.812c0-8.399,6.809-15.208,15.208-15.208h466.376
	c8.399,0,15.208,6.809,15.208,15.208V68.436z"/>
<rect x="7.601" y="51.2" style="fill:#0053C0;" width="496.792" height="17.236"/>
<rect x="7.604" y="68.436" style="fill:#FDD93B;" width="496.792" height="435.96"/>
<path style="fill:#F5A800;" d="M256,396.42c-110.569,0-196.92-109.634-200.542-114.301l-9.648-12.432l9.648-12.432
	C59.08,252.588,145.431,142.954,256,142.954s196.92,109.634,200.543,114.301l9.647,12.432l-9.648,12.432
	C452.92,286.786,366.569,396.42,256,396.42z"/>
<path style="fill:#FFFFFF;" d="M440.523,269.687c0,0-82.613,106.455-184.523,106.455S71.477,269.687,71.477,269.687
	S154.091,163.232,256,163.232S440.523,269.687,440.523,269.687z"/>
<path style="fill:#BD8A53;" d="M308.721,259.042c-16.799,0-30.416-13.617-30.416-30.416c0-9.153,4.048-17.355,10.446-22.931
	c-9.296-4.471-19.717-6.978-30.723-6.978c-39.196,0-70.97,31.774-70.97,70.97s31.774,70.97,70.97,70.97s70.97-31.774,70.97-70.97
	c0-5.771-0.706-11.375-2.005-16.746C321.905,256.771,315.579,259.042,308.721,259.042z"/>
<path style="fill:#FFFFFF;" d="M225.077,269.687h-15.208c0-21.979,14.865-41.16,36.149-46.642l3.793,14.726
	C235.248,241.524,225.077,254.648,225.077,269.687z"/>
<path style="fill:#AA6D3B;" d="M258.028,318.859c-35.489,0-64.892-26.05-70.136-60.071c-0.547,3.554-0.834,7.192-0.834,10.899
	c0,39.196,31.774,70.97,70.97,70.97s70.97-31.774,70.97-70.97c0-3.694-0.292-7.318-0.841-10.857
	C322.896,292.831,293.503,318.859,258.028,318.859z"/>
<rect x="7.604" y="68.436" style="fill:#F5A800;" width="496.792" height="20.277"/>
<path style="fill:#D8D7DA;" d="M256,184.016c82.224,0,151.876,69.291,175.72,96.063c5.708-6.41,8.802-10.392,8.802-10.392
	S357.909,163.232,256,163.232S71.477,269.687,71.477,269.687s3.094,3.982,8.802,10.392C104.124,253.307,173.776,184.016,256,184.016
	z"/>
<path style="fill:#FFFFFF;" d="M48.665,211.39H33.457v-15.208h15.208V211.39z M48.665,180.974H33.457v-75.026h15.208V180.974z"/>
<path d="M489.188,0H22.812C10.233,0,0,10.234,0,22.812v38.02V76.04V512h512V76.04V60.832v-38.02C512,10.234,501.766,0,489.188,0z
	 M496.792,496.792H15.208V76.04h481.584V496.792z M15.208,60.832v-38.02c0-4.193,3.411-7.604,7.604-7.604h466.376
	c4.193,0,7.604,3.411,7.604,7.604v38.02H15.208z"/>
<rect x="92.768" y="30.416" width="15.208" height="15.208"/>
<rect x="62.352" y="30.416" width="15.208" height="15.208"/>
<rect x="31.937" y="30.416" width="15.208" height="15.208"/>
<path d="M120.783,328.861c45.051,35.906,91.808,54.885,135.217,54.885c43.407,0,90.166-18.979,135.217-54.885
	c33.715-26.871,54.447-53.396,55.313-54.513l3.617-4.662l-3.617-4.662c-0.866-1.117-21.598-27.642-55.313-54.513
	c-45.051-35.904-91.809-54.883-135.217-54.883c-43.408,0-90.166,18.979-135.217,54.885c-33.715,26.871-54.447,53.396-55.314,54.513
	l-3.617,4.661l3.617,4.662C66.336,275.465,87.068,301.99,120.783,328.861z M130.54,222.185
	c29.455-23.425,75.131-51.349,125.46-51.349c50.33,0,96.006,27.924,125.46,51.349c24.262,19.294,41.84,38.817,49.214,47.502
	c-7.374,8.685-24.952,28.208-49.214,47.502c-29.455,23.425-75.13,51.349-125.46,51.349c-50.329,0-96.006-27.924-125.46-51.349
	c-24.262-19.294-41.841-38.818-49.214-47.502C88.7,261.002,106.278,241.479,130.54,222.185z"/>
<path d="M258.028,348.261c43.325,0,78.574-35.249,78.574-78.574c0-6.214-0.746-12.449-2.218-18.534l-2.722-11.243l-9.241,6.956
	c-3.974,2.99-8.711,4.572-13.699,4.572c-12.578,0-22.812-10.234-22.812-22.812c0-6.589,2.856-12.858,7.837-17.198l8.699-7.583
	l-10.398-5.003c-10.663-5.129-22.108-7.73-34.02-7.73c-43.326,0-78.574,35.249-78.574,78.574S214.701,348.261,258.028,348.261z
	 M258.028,206.321c6.24,0,12.317,0.883,18.165,2.634c-3.557,5.874-5.492,12.663-5.492,19.671c0,20.965,17.055,38.02,38.02,38.02
	c4.305,0,8.5-0.708,12.463-2.082c0.14,1.706,0.21,3.417,0.21,5.124c0,34.941-28.426,63.366-63.366,63.366
	c-34.94,0-63.366-28.426-63.366-63.366S223.088,206.321,258.028,206.321z"/>
<rect x="71.477" y="175.398" width="15.208" height="15.208"/>
<rect x="425.315" y="175.398" width="15.208" height="15.208"/>
<rect x="71.477" y="348.768" width="15.208" height="15.208"/>
<rect x="425.315" y="348.768" width="15.208" height="15.208"/>
<g>
</g>
<g>
</g>
<g>
</g>
<g>
</g>
<g>
</g>
<g>
</g>
<g>
</g>
<g>
</g>
<g>
</g>
<g>
</g>
<g>
</g>
<g>
</g>
<g>
</g>
<g>
</g>
<g>
</g>
</svg>
